<?xml version="1.0" encoding="UTF-8" standalone="no"?>
<svg width="338px" height="144px" viewBox="0 0 338 144" version="1.1" xmlns="http://www.w3.org/2000/svg" xmlns:xlink="http://www.w3.org/1999/xlink" xmlns:sketch="http://www.bohemiancoding.com/sketch/ns">
    <!-- Generator: Sketch 3.3.3 (12081) - http://www.bohemiancoding.com/sketch -->
    <title>hazardawareness + Logo</title>
    <desc>Created with Sketch.</desc>
    <defs></defs>
    <g id="Page-1" stroke="none" stroke-width="1" fill="none" fill-rule="evenodd" sketch:type="MSPage">
        <g id="wordpress-background" sketch:type="MSArtboardGroup" transform="translate(-431.000000, -150.000000)" fill="#FFFFFF">
            <g id="hazardawareness-+-Logo" sketch:type="MSLayerGroup" transform="translate(431.000000, 150.000000)">
                <g id="Logo" transform="translate(122.070204, 0.000000)" sketch:type="MSShapeGroup">
                    <path d="M56.2984482,47.1294723 L56.2984482,67.585555 C51.8508054,72.0239429 41.1225907,71.7601244 36.9368656,67.585555 L36.9368656,47.1294723 L0.131454982,47.1294723 C0.516890909,72.4248679 21.1746692,92.8151197 46.617905,92.8151197 C72.0606446,92.8151197 92.718423,72.4248679 93.104355,47.1294723 L56.2984482,47.1294723" id="Fill-2"></path>
                    <path d="M54.3653159,43.1756592 L92.9972068,43.1756592 C92.902956,41.8075646 92.7566193,40.4533291 92.5462914,39.1203774 L49.7743127,39.1203774 L49.8368158,41.5011787 L54.3653159,43.1756592 Z M38.8516439,43.1756592 L43.4004823,41.4769252 L43.4619933,39.1203774 L0.689518583,39.1203774 C0.4781985,40.4533291 0.332853935,41.8075646 0.238107137,43.1756592 L38.8516439,43.1756592 Z" id="Fill-1"></path>
                    <path d="M49.5639847,31.1117774 L49.6706369,35.1670592 L91.7387113,35.1670592 C91.3959363,33.7895602 90.9866896,32.4377996 90.5223807,31.1117774 L49.5639847,31.1117774 Z M43.6718252,31.1117774 L2.71342925,31.1117774 C2.24912033,32.4377996 1.83987369,33.7895602 1.49610651,35.1670592 L43.5656691,35.1670592 L43.6718252,31.1117774 Z" id="Fill-3"></path>
                    <path d="M49.1443209,15.0945775 L49.2509731,19.1493643 L84.2398247,19.1493643 C83.2105074,17.7367225 82.1082698,16.3810022 80.9291434,15.0945775 L49.1443209,15.0945775 Z M44.090993,15.0945775 L12.3066666,15.0945775 C11.1270441,16.3810022 10.0248065,17.7367225 8.99499315,19.1493643 L43.9848369,19.1493643 L44.090993,15.0945775 Z" id="Fill-4"></path>
                    <path d="M49.3541528,23.1031775 L49.4603089,27.1584592 L88.928055,27.1584592 C88.2911184,25.768586 87.5887024,24.4153405 86.8227911,23.1031775 L49.3541528,23.1031775 Z M43.8811611,23.1031775 L6.41252283,23.1031775 C5.64611548,24.4153405 4.94419548,25.768586 4.30775495,27.1584592 L43.775501,27.1584592 L43.8811611,23.1031775 Z" id="Fill-6"></path>
                    <path d="M21.9435569,7.08548259 C19.9995113,8.30261159 18.1536849,9.65981685 16.4174871,11.1412593 L45.4893764,11.1412593 L46.5643309,8.89706947 L47.6864107,11.1412593 L76.8178268,11.1412593 C75.0816289,9.65981685 73.2358026,8.30261159 71.291757,7.08548259 L21.9435569,7.08548259" id="Fill-10"></path>
                    <path d="M63.3870961,3.13216443 C58.1834631,1.12258991 52.532387,0.00989938189 46.617905,0.00989938189 C40.7029269,0.00989938189 35.0523469,1.12258991 29.8482178,3.13216443 L63.3870961,3.13216443" id="Fill-5"></path>
                </g>
                <path d="M21.178571,140.504072 C21.5649016,140.504072 22.1643712,140.197836 22.9769977,139.585354 L23.5365082,141.043319 C22.71056,142.175078 21.50496,143.013898 19.9196723,143.559806 C19.2269415,143.812787 18.4309791,143.939276 17.5317612,143.939276 C16.6325434,143.939276 15.9165103,143.842745 15.3836404,143.64968 C14.8507706,143.456616 14.4444634,143.200309 14.1647067,142.880754 C13.7117674,142.361476 13.4853011,141.575914 13.4853011,140.524044 C13.4853011,139.978137 13.5585696,139.292434 13.7051088,138.466916 L14.7242173,132.894695 C15.1105479,130.644492 15.3037103,129.133284 15.3037103,128.361025 C15.3037103,127.588766 15.3003799,127.039538 15.2937191,126.713325 C15.2870582,126.387112 15.250424,126.044261 15.1838152,125.684761 C15.1172065,125.325261 15.0172949,125.038997 14.8840774,124.82596 C14.6576078,124.43983 14.3045868,124.246769 13.8250039,124.246769 C13.3454211,124.246769 12.8791669,124.386572 12.4262276,124.666183 C11.9732882,124.945794 11.5270164,125.325261 11.0873988,125.804594 C10.1415548,126.816519 9.35558361,128.028149 8.72946155,129.439519 L7.0109649,143.519862 L0.356786034,143.519862 L3.93365696,113.921184 L1.39587703,113.062383 L1.71559733,111.404697 L9.88844765,110.565868 L10.9874862,111.105116 L9.24900704,125.245374 C11.2339472,121.943301 13.7916841,120.292289 16.9222944,120.292289 C20.4525571,120.292289 22.217662,122.302796 22.217662,126.323869 C22.217662,127.056183 22.0777857,128.281128 21.798029,129.998738 L21.2385185,133.433942 C21.158588,133.939905 21.0686676,134.465832 20.9687545,135.01174 C20.8688414,135.557647 20.7722602,136.096889 20.679008,136.629481 C20.4925035,137.814499 20.3992527,138.756508 20.3992527,139.455536 C20.3992527,140.154563 20.6590229,140.504072 21.178571,140.504072 L21.178571,140.504072 Z M39.1628382,141.402817 C37.4842982,143.080483 35.4594231,143.919304 33.0881524,143.919304 C30.7168816,143.919304 28.9118121,143.093798 27.6728897,141.442761 C26.5805065,139.951502 26.0343231,137.967625 26.0343231,135.49107 C26.0343231,131.350164 27.1932976,127.848421 29.5112814,124.985737 C31.0832475,123.015145 33.1081225,121.64374 35.5859672,120.871481 C36.8515331,120.485351 38.2403043,120.292289 39.7523225,120.292289 C41.2643407,120.292289 42.8462743,120.578554 44.4981708,121.15109 L47.5355137,120.292289 L44.9577687,138.986191 C44.837873,139.998117 45.0976431,140.504072 45.737087,140.504072 C46.1900263,140.504072 46.8094782,140.197836 47.5954612,139.585354 L48.1549718,141.043319 C47.4489192,142.135134 46.2966055,142.973954 44.697996,143.559806 C44.0585522,143.799472 43.2958936,143.919304 42.4099975,143.919304 C41.5241014,143.919304 40.7681037,143.70627 40.1419816,143.280196 C39.5158595,142.854122 39.1894817,142.228335 39.1628382,141.402817 L39.1628382,141.402817 Z M38.423485,139.345689 L40.6215621,123.208219 C40.1819444,123.12833 39.6424218,123.088386 39.002978,123.088386 C38.3635342,123.088386 37.7307608,123.264804 37.1046387,123.617647 C36.4785166,123.970489 35.9323332,124.449815 35.4660721,125.055639 C34.999811,125.661463 34.6068254,126.367138 34.2871035,127.172684 C33.9673816,127.97823 33.7076114,128.833694 33.5077853,129.739101 C33.1347764,131.430082 32.9482747,133.187611 32.9482747,135.01174 C32.9482747,136.835869 33.2113753,138.197288 33.7375842,139.096038 C34.2637932,139.994787 34.9698351,140.444155 35.8557313,140.444155 C36.7416274,140.444155 37.5975367,140.078004 38.423485,139.345689 L38.423485,139.345689 Z M49.7735558,143.97922 L48.5346396,142.740949 L61.443347,126.923032 L63.3017213,125.884482 L57.247018,125.86451 C55.6750519,125.86451 54.615989,126.476982 54.0697974,127.701945 C53.8966147,128.07476 53.7900424,128.467541 53.7500771,128.8803 L51.9916154,128.8803 C51.858398,128.147985 51.7917902,127.522198 51.7917902,127.002921 C51.7917902,126.483643 51.7951206,126.064233 51.8017815,125.744677 C51.8084424,125.425122 51.8350855,124.975754 51.8817116,124.39656 C51.9283377,123.817365 52.0049366,123.274795 52.1115106,122.768832 C52.3646237,121.663703 52.7709309,120.984657 53.3304442,120.731676 C54.0364968,120.43875 54.6825918,120.292289 55.2687486,120.292289 C55.8549054,120.292289 56.4810181,120.308933 57.1471054,120.34222 C57.8131927,120.375507 58.5059131,120.418779 59.2252874,120.472039 L63.6214416,120.811565 C65.1800859,120.931398 66.3956769,120.991314 67.2682513,120.991314 C68.1408257,120.991314 68.850198,120.758308 69.3963896,120.292289 L70.4554631,121.510589 L57.4868082,137.528226 L56.0480668,138.387027 L62.6023331,138.387027 C64.2009426,138.387027 65.2999702,137.727954 65.8994487,136.409788 C66.0859532,136.023658 66.1991863,135.604248 66.2391516,135.151544 L67.9376657,135.151544 C68.0442397,135.963748 68.0975259,136.765953 68.0975259,137.558185 C68.0975259,138.350416 68.0708828,139.039447 68.0175958,139.625299 C67.9643088,140.21115 67.8843795,140.763707 67.7778055,141.282984 C67.5113706,142.481317 67.118385,143.246908 66.5988369,143.579778 C66.2125063,143.846074 65.5131251,143.97922 64.5006724,143.97922 C63.208463,143.97922 61.5898952,143.909318 59.6449203,143.769513 C57.6999453,143.629707 56.3478084,143.533177 55.5884689,143.479917 C53.7633897,143.373399 52.4378958,143.32014 51.6119476,143.32014 C50.7859993,143.32014 50.1732082,143.539831 49.7735558,143.97922 L49.7735558,143.97922 Z M83.6439257,141.402817 C81.9653857,143.080483 79.9405107,143.919304 77.5692399,143.919304 C75.1979691,143.919304 73.3928996,143.093798 72.1539772,141.442761 C71.0615941,139.951502 70.5154107,137.967625 70.5154107,135.49107 C70.5154107,131.350164 71.6743852,127.848421 73.992369,124.985737 C75.564335,123.015145 77.58921,121.64374 80.0670548,120.871481 C81.3326207,120.485351 82.7213919,120.292289 84.23341,120.292289 C85.7454282,120.292289 87.3273618,120.578554 88.9792583,121.15109 L92.0166012,120.292289 L89.4388563,138.986191 C89.3189606,139.998117 89.5787307,140.504072 90.2181745,140.504072 C90.6711139,140.504072 91.2905658,140.197836 92.0765488,139.585354 L92.6360593,141.043319 C91.9300068,142.135134 90.777693,142.973954 89.1790835,143.559806 C88.5396397,143.799472 87.7769812,143.919304 86.8910851,143.919304 C86.005189,143.919304 85.2491912,143.70627 84.6230692,143.280196 C83.9969471,142.854122 83.6705692,142.228335 83.6439257,141.402817 L83.6439257,141.402817 Z M82.9045725,139.345689 L85.1026496,123.208219 C84.663032,123.12833 84.1235094,123.088386 83.4840656,123.088386 C82.8446218,123.088386 82.2118483,123.264804 81.5857263,123.617647 C80.9596042,123.970489 80.4134208,124.449815 79.9471597,125.055639 C79.4808986,125.661463 79.087913,126.367138 78.7681911,127.172684 C78.4484692,127.97823 78.188699,128.833694 77.9888728,129.739101 C77.6158639,131.430082 77.4293623,133.187611 77.4293623,135.01174 C77.4293623,136.835869 77.6924628,138.197288 78.2186718,139.096038 C78.7448808,139.994787 79.4509227,140.444155 80.3368188,140.444155 C81.2227149,140.444155 82.0786243,140.078004 82.9045725,139.345689 L82.9045725,139.345689 Z M104.046078,126.224008 C105.191748,122.269509 107.156676,120.292289 109.940921,120.292289 C110.447147,120.292289 110.913401,120.425436 111.339697,120.691732 L109.960903,127.821778 C109.614538,127.409018 108.975104,127.202642 108.042582,127.202642 C106.443972,127.202642 105.011906,127.582108 103.74634,128.341053 L101.648175,143.519862 L95.1938218,143.519862 L97.8315143,124.306685 L95.6933848,123.108358 L96.0330876,121.33084 L102.587354,120.292289 L103.646427,120.77162 L104.046078,126.224008 Z M131.142374,138.946247 C130.995834,139.984802 131.255605,140.504072 131.921692,140.504072 C132.281379,140.504072 132.867527,140.197836 133.680154,139.585354 L134.239664,141.043319 L133.620206,141.722371 C132.927475,142.49463 132.131513,143.053844 131.232295,143.400029 C130.333077,143.746214 129.383917,143.919304 128.384786,143.919304 C126.386524,143.919304 125.307479,142.807534 125.147618,140.58396 C124.081878,142.061904 122.63649,143.067158 120.811411,143.59975 C120.11868,143.812787 119.24945,143.919304 118.203693,143.919304 C117.157935,143.919304 116.198784,143.696284 115.32621,143.250238 C114.453635,142.804192 113.744263,142.201706 113.198072,141.442761 C112.158975,139.978132 111.639435,137.994255 111.639435,135.49107 C111.639435,131.296905 112.731802,127.795162 114.916568,124.985737 C116.435247,123.02846 118.446801,121.657055 120.951289,120.871481 C122.216855,120.485351 123.37916,120.292289 124.438239,120.292289 C125.497317,120.292289 126.419834,120.352205 127.205817,120.472039 L128.164978,113.921184 L125.047705,113.062383 L125.427373,111.404697 L134.059821,110.565868 L135.178843,111.105116 L131.142374,138.946247 Z M121.330957,140.444155 C122.529914,140.444155 123.608959,139.758453 124.568125,138.387027 L126.766202,123.40794 C126.166723,123.194903 125.467342,123.088386 124.668037,123.088386 C123.868733,123.088386 123.15936,123.264804 122.539899,123.617647 C121.920438,123.970489 121.377585,124.449815 120.911324,125.055639 C120.445063,125.661463 120.055408,126.367138 119.742347,127.172684 C119.429285,127.97823 119.179506,128.833694 118.993002,129.739101 C118.633315,131.390137 118.453474,133.141009 118.453474,134.991768 C118.453474,138.626711 119.412625,140.444155 121.330957,140.444155 L121.330957,140.444155 Z M149.846012,141.402817 C148.167472,143.080483 146.142597,143.919304 143.771326,143.919304 C141.400055,143.919304 139.594985,143.093798 138.356063,141.442761 C137.26368,139.951502 136.717497,137.967625 136.717497,135.49107 C136.717497,131.350164 137.876471,127.848421 140.194455,124.985737 C141.766421,123.015145 143.791296,121.64374 146.269141,120.871481 C147.534707,120.485351 148.923478,120.292289 150.435496,120.292289 C151.947514,120.292289 153.529448,120.578554 155.181344,121.15109 L158.218687,120.292289 L155.640942,138.986191 C155.521046,139.998117 155.780817,140.504072 156.42026,140.504072 C156.8732,140.504072 157.492652,140.197836 158.278635,139.585354 L158.838145,141.043319 C158.132093,142.135134 156.979779,142.973954 155.381169,143.559806 C154.741726,143.799472 153.979067,143.919304 153.093171,143.919304 C152.207275,143.919304 151.451277,143.70627 150.825155,143.280196 C150.199033,142.854122 149.872655,142.228335 149.846012,141.402817 L149.846012,141.402817 Z M149.106658,139.345689 L151.304735,123.208219 C150.865118,123.12833 150.325595,123.088386 149.686151,123.088386 C149.046708,123.088386 148.413934,123.264804 147.787812,123.617647 C147.16169,123.970489 146.615507,124.449815 146.149246,125.055639 C145.682984,125.661463 145.289999,126.367138 144.970277,127.172684 C144.650555,127.97823 144.390785,128.833694 144.190959,129.739101 C143.81795,131.430082 143.631448,133.187611 143.631448,135.01174 C143.631448,136.835869 143.894549,138.197288 144.420758,139.096038 C144.946967,139.994787 145.653009,140.444155 146.538905,140.444155 C147.424801,140.444155 148.28071,140.078004 149.106658,139.345689 L149.106658,139.345689 Z M166.291625,143.919304 L162.255156,125.045653 C162.121938,124.326653 161.828864,123.953844 161.375925,123.927215 C161.002916,123.9139 160.503358,124.133591 159.877236,124.586295 L159.297743,122.988525 C159.96383,122.029859 161.089501,121.244297 162.674789,120.631815 C163.287589,120.405464 164.0669,120.292289 165.012744,120.292289 C165.958588,120.292289 166.761211,120.525295 167.420637,120.991314 C168.080064,121.457332 168.48304,122.136377 168.62958,123.028469 L170.428006,134.752102 L170.947552,138.966219 L172.686031,133.334082 L176.462727,120.452066 L181.997885,120.452066 L184.355822,135.431154 L184.955298,138.966219 L186.733742,135.67082 C188.039273,133.247524 188.692029,130.704433 188.692029,128.041471 C188.692029,127.335786 188.61876,126.603482 188.472221,125.844538 C188.192464,124.393224 188.052588,123.467858 188.052588,123.068414 C188.052588,122.668969 188.119196,122.299489 188.252413,121.959961 C188.385631,121.620434 188.585454,121.324183 188.851889,121.071202 C189.424724,120.551924 190.147418,120.292289 191.019992,120.292289 C191.892567,120.292289 192.551983,120.41545 192.998262,120.661774 C193.44454,120.908098 193.78757,121.230977 194.027361,121.630421 C194.453657,122.362736 194.666802,123.208214 194.666802,124.16688 C194.666802,125.125547 194.573551,125.971024 194.387047,126.703339 C194.200542,127.435654 193.937442,128.214558 193.597737,129.040077 C193.258033,129.865595 192.868377,130.704416 192.42876,131.556563 C191.989142,132.408711 191.529549,133.237546 191.049966,134.043092 C190.570383,134.848638 190.090807,135.6109 189.611225,136.329899 L188.272396,138.287167 L184.395787,143.679638 L179.599983,143.87936 L178.241171,136.42976 L177.481836,131.077233 L177.461853,128.32108 L176.522675,131.077233 L174.644318,136.988979 L171.946678,143.59975 L166.291625,143.919304 Z M208.934321,141.402817 C207.255781,143.080483 205.230906,143.919304 202.859635,143.919304 C200.488364,143.919304 198.683294,143.093798 197.444372,141.442761 C196.351989,139.951502 195.805806,137.967625 195.805806,135.49107 C195.805806,131.350164 196.96478,127.848421 199.282764,124.985737 C200.85473,123.015145 202.879605,121.64374 205.35745,120.871481 C206.623016,120.485351 208.011787,120.292289 209.523805,120.292289 C211.035823,120.292289 212.617757,120.578554 214.269653,121.15109 L217.306996,120.292289 L214.729251,138.986191 C214.609355,139.998117 214.869126,140.504072 215.508569,140.504072 C215.961509,140.504072 216.580961,140.197836 217.366944,139.585354 L217.926454,141.043319 C217.220402,142.135134 216.068088,142.973954 214.469478,143.559806 C213.830035,143.799472 213.067376,143.919304 212.18148,143.919304 C211.295584,143.919304 210.539586,143.70627 209.913464,143.280196 C209.287342,142.854122 208.960964,142.228335 208.934321,141.402817 L208.934321,141.402817 Z M208.194967,139.345689 L210.393045,123.208219 C209.953427,123.12833 209.413904,123.088386 208.77446,123.088386 C208.135017,123.088386 207.502243,123.264804 206.876121,123.617647 C206.249999,123.970489 205.703816,124.449815 205.237555,125.055639 C204.771293,125.661463 204.378308,126.367138 204.058586,127.172684 C203.738864,127.97823 203.479094,128.833694 203.279268,129.739101 C202.906259,131.430082 202.719757,133.187611 202.719757,135.01174 C202.719757,136.835869 202.982858,138.197288 203.509067,139.096038 C204.035276,139.994787 204.741318,140.444155 205.627214,140.444155 C206.51311,140.444155 207.369019,140.078004 208.194967,139.345689 L208.194967,139.345689 Z M229.336473,126.224008 C230.482143,122.269509 232.447071,120.292289 235.231316,120.292289 C235.737542,120.292289 236.203796,120.425436 236.630092,120.691732 L235.251298,127.821778 C234.904933,127.409018 234.265499,127.202642 233.332976,127.202642 C231.734367,127.202642 230.302301,127.582108 229.036735,128.341053 L226.93857,143.519862 L220.484217,143.519862 L223.121909,124.306685 L220.98378,123.108358 L221.323482,121.33084 L227.877749,120.292289 L228.936822,120.77162 L229.336473,126.224008 Z M247.860268,140.344295 C250.231539,140.344295 252.216449,139.305755 253.815059,137.228645 L255.09394,139.285773 C253.855017,141.21642 251.883429,142.60114 249.179114,143.439973 C248.140018,143.759529 247.03433,143.919304 245.862016,143.919304 C244.689702,143.919304 243.680595,143.802801 242.834664,143.569792 C241.988733,143.336783 241.239396,143.013903 240.586631,142.601144 C239.933865,142.188385 239.381021,141.699073 238.928082,141.133194 C238.475142,140.567314 238.102139,139.951513 237.809061,139.285773 C237.236226,137.980921 236.949812,136.529629 236.949812,134.931851 L236.949812,134.812019 C236.949812,130.644483 238.195377,127.182684 240.686543,124.426518 C243.151067,121.670352 246.228344,120.292289 249.918467,120.292289 C253.115686,120.292289 255.160544,121.297543 256.053101,123.308079 C256.346179,123.987134 256.492716,124.779354 256.492716,125.684761 C256.492716,126.590168 256.319536,127.462275 255.973171,128.301108 C255.626805,129.139941 255.133908,129.892217 254.494464,130.557958 C253.85502,131.223698 253.112344,131.799555 252.266413,132.285546 C251.420482,132.771536 250.531269,133.167646 249.598747,133.473887 C247.760346,134.086368 245.935294,134.405919 244.123537,134.432548 C244.123537,136.509659 244.456575,138.01421 245.122663,138.946247 C245.78875,139.878284 246.701276,140.344295 247.860268,140.344295 L247.860268,140.344295 Z M248.439761,123.048442 C245.948594,123.048442 244.509867,126.044229 244.123537,132.035894 C245.535642,131.942691 246.841153,131.383477 248.040111,130.358236 C249.398929,129.186533 250.078327,127.675325 250.078327,125.824566 C250.078327,123.973807 249.532144,123.048442 248.439761,123.048442 L248.439761,123.048442 Z M278.97305,140.504072 C279.359381,140.504072 279.95885,140.197836 280.771477,139.585354 L281.330987,141.043319 C280.505039,142.175078 279.3061,143.013898 277.734134,143.559806 C277.028081,143.812787 276.225458,143.939276 275.32624,143.939276 C274.427023,143.939276 273.710989,143.832759 273.17812,143.619722 C272.64525,143.406685 272.238943,143.133736 271.959186,142.800865 C271.506247,142.281588 271.27978,141.522655 271.27978,140.524044 C271.27978,139.978137 271.353049,139.292434 271.499588,138.466916 L272.498714,132.894695 C272.898366,130.644492 273.09819,129.133284 273.09819,128.361025 C273.09819,127.588766 273.094859,127.039538 273.088198,126.713325 C273.081537,126.387112 273.044903,126.044261 272.978294,125.684761 C272.911686,125.325261 272.818435,125.038997 272.698539,124.82596 C272.458748,124.43983 272.102396,124.246769 271.629474,124.246769 C271.156552,124.246769 270.70362,124.376586 270.270663,124.636225 C269.837706,124.895864 269.408086,125.25203 268.981791,125.704733 C268.102555,126.596826 267.336566,127.735225 266.683801,129.119965 L264.705531,143.519862 L258.231195,143.519862 L260.848905,124.306685 L258.710776,123.108358 L259.030496,121.33084 L266.503958,120.292289 L267.543049,120.77162 L267.223329,124.965765 C269.194947,121.850099 271.692737,120.292289 274.716774,120.292289 C278.247036,120.292289 280.012141,122.302796 280.012141,126.323869 C280.012141,127.056183 279.872265,128.281128 279.592508,129.998738 L279.032998,133.433942 C278.953067,133.939905 278.863147,134.465832 278.763234,135.01174 C278.663321,135.557647 278.5734,136.096889 278.49347,136.629481 C278.293643,137.814499 278.193732,138.756508 278.193732,139.455536 C278.193732,140.154563 278.453502,140.504072 278.97305,140.504072 L278.97305,140.504072 Z M294.75924,140.344295 C297.130511,140.344295 299.115421,139.305755 300.714031,137.228645 L301.992912,139.285773 C300.75399,141.21642 298.782401,142.60114 296.078086,143.439973 C295.03899,143.759529 293.933302,143.919304 292.760988,143.919304 C291.588675,143.919304 290.579568,143.802801 289.733637,143.569792 C288.887706,143.336783 288.138369,143.013903 287.485603,142.601144 C286.832838,142.188385 286.279994,141.699073 285.827054,141.133194 C285.374115,140.567314 285.001112,139.951513 284.708033,139.285773 C284.135198,137.980921 283.848785,136.529629 283.848785,134.931851 C283.848785,134.891907 283.848785,134.851963 283.848785,134.812019 C283.848785,130.644483 285.094349,127.182684 287.585516,124.426518 C290.050039,121.670352 293.127316,120.292289 296.81744,120.292289 C300.014659,120.292289 302.059516,121.297543 302.952073,123.308079 C303.245151,123.987134 303.391688,124.779354 303.391688,125.684761 C303.391688,126.590168 303.218508,127.462275 302.872143,128.301108 C302.525778,129.139941 302.03288,129.892217 301.393437,130.557958 C300.753993,131.223698 300.011317,131.799555 299.165386,132.285546 C298.319455,132.771536 297.430242,133.167646 296.497719,133.473887 C294.659318,134.086368 292.834267,134.405919 291.022509,134.432548 C291.022509,136.509659 291.355548,138.01421 292.021635,138.946247 C292.687722,139.878284 293.600248,140.344295 294.75924,140.344295 L294.75924,140.344295 Z M295.338733,123.048442 C292.847567,123.048442 291.40884,126.044229 291.022509,132.035894 C292.434614,131.942691 293.740126,131.383477 294.939083,130.358236 C296.297901,129.186533 296.9773,127.675325 296.9773,125.824566 C296.9773,123.973807 296.431116,123.048442 295.338733,123.048442 L295.338733,123.048442 Z M319.257809,125.165486 C318.04553,123.834005 316.686732,123.168274 315.181375,123.168274 C313.729304,123.168274 312.750171,123.600999 312.243944,124.466462 C312.070762,124.759388 311.984172,125.105568 311.984172,125.505012 C311.984172,126.277271 312.203977,126.916372 312.643595,127.422335 C313.269717,128.141335 314.049027,128.837023 314.98155,129.509421 C315.914072,130.181819 316.623444,130.74769 317.109688,131.207051 C317.595932,131.666412 318.025551,132.182354 318.39856,132.75489 C319.211187,134.006483 319.617494,135.331287 319.617494,136.729342 C319.617494,138.127397 319.344402,139.265796 318.798211,140.144574 C318.252019,141.023351 317.532656,141.74234 316.640099,142.301562 C314.921593,143.380062 312.723538,143.919304 310.045867,143.919304 C308.060927,143.919304 306.242536,143.613068 304.59064,143.000586 C304.1377,142.840809 303.817983,142.687691 303.631479,142.541228 L304.59064,138.526832 C305.549805,139.485499 306.762066,140.177858 308.227458,140.603932 C308.77365,140.76371 309.283199,140.843598 309.756121,140.843598 C310.229043,140.843598 310.652002,140.800325 311.025011,140.713779 C311.39802,140.627233 311.737719,140.490758 312.044119,140.304351 C312.73685,139.878277 313.08321,139.239175 313.08321,138.387027 C313.08321,137.654713 312.843422,137.015611 312.36384,136.469704 C311.711074,135.71076 310.948415,135.028386 310.075841,134.422562 C309.203267,133.816738 308.533859,133.307454 308.067598,132.894695 C307.601337,132.481936 307.181708,131.995953 306.808699,131.436731 C305.969429,130.171824 305.549801,128.84702 305.549801,127.462279 C305.549801,126.077539 305.789588,124.965769 306.269171,124.126936 C306.748754,123.288103 307.408171,122.582428 308.247441,122.009892 C309.952624,120.864818 312.177322,120.292289 314.921602,120.292289 C316.493568,120.292289 317.709159,120.395478 318.568412,120.601857 C319.427664,120.808237 319.943874,120.951369 320.117057,121.031258 L319.257809,125.165486 Z M336.702548,125.165486 C335.490269,123.834005 334.131471,123.168274 332.626114,123.168274 C331.174044,123.168274 330.19491,123.600999 329.688684,124.466462 C329.515501,124.759388 329.428911,125.105568 329.428911,125.505012 C329.428911,126.277271 329.648716,126.916372 330.088334,127.422335 C330.714456,128.141335 331.493767,128.837023 332.426289,129.509421 C333.358811,130.181819 334.068183,130.74769 334.554427,131.207051 C335.040671,131.666412 335.470291,132.182354 335.8433,132.75489 C336.655926,134.006483 337.062233,135.331287 337.062233,136.729342 C337.062233,138.127397 336.789142,139.265796 336.24295,140.144574 C335.696758,141.023351 334.977395,141.74234 334.084838,142.301562 C332.366333,143.380062 330.168277,143.919304 327.490607,143.919304 C325.505666,143.919304 323.687275,143.613068 322.035379,143.000586 C321.582439,142.840809 321.262722,142.687691 321.076218,142.541228 L322.035379,138.526832 C322.994545,139.485499 324.206805,140.177858 325.672197,140.603932 C326.218389,140.76371 326.727938,140.843598 327.20086,140.843598 C327.673782,140.843598 328.096741,140.800325 328.46975,140.713779 C328.842759,140.627233 329.182458,140.490758 329.488858,140.304351 C330.181589,139.878277 330.527949,139.239175 330.527949,138.387027 C330.527949,137.654713 330.288162,137.015611 329.808579,136.469704 C329.155813,135.71076 328.393155,135.028386 327.52058,134.422562 C326.648006,133.816738 325.978598,133.307454 325.512337,132.894695 C325.046076,132.481936 324.626447,131.995953 324.253438,131.436731 C323.414168,130.171824 322.99454,128.84702 322.99454,127.462279 C322.99454,126.077539 323.234328,124.965769 323.71391,124.126936 C324.193493,123.288103 324.85291,122.582428 325.69218,122.009892 C327.397363,120.864818 329.622062,120.292289 332.366341,120.292289 C333.938307,120.292289 335.153898,120.395478 336.013151,120.601857 C336.872404,120.808237 337.388613,120.951369 337.561796,121.031258 L336.702548,125.165486 Z" id="hazardawareness" sketch:type="MSShapeGroup"></path>
            </g>
        </g>
    </g>
</svg>