<?xml version="1.0" encoding="UTF-8" standalone="no"?>
<svg width="279px" height="119px" viewBox="0 0 279 119" version="1.1" xmlns="http://www.w3.org/2000/svg" xmlns:xlink="http://www.w3.org/1999/xlink" xmlns:sketch="http://www.bohemiancoding.com/sketch/ns">
    <!-- Generator: Sketch 3.3.3 (12081) - http://www.bohemiancoding.com/sketch -->
    <title>hazardawareness + Logo</title>
    <desc>Created with Sketch.</desc>
    <defs></defs>
    <g id="Page-1" stroke="none" stroke-width="1" fill="none" fill-rule="evenodd" sketch:type="MSPage">
        <g id="wordpress-background" sketch:type="MSArtboardGroup" transform="translate(-461.000000, -157.000000)" fill="#FFFFFF">
            <g id="hazardawareness-+-Logo" sketch:type="MSLayerGroup" transform="translate(461.000000, 157.000000)">
                <g id="Logo" transform="translate(100.824947, 0.000000)" sketch:type="MSShapeGroup">
                    <path d="M46.5001932,38.9472722 L46.5001932,55.8519517 C42.8266239,59.5197861 33.9655616,59.3017694 30.5083256,55.8519517 L30.5083256,38.9472722 L0.108576386,38.9472722 C0.426930545,59.8511061 17.4894023,76.7013836 38.5044643,76.7013836 C59.5191165,76.7013836 76.5815883,59.8511061 76.9003522,38.9472722 L46.5001932,38.9472722" id="Fill-2"></path>
                    <path d="M44.9035058,35.679885 L76.8118522,35.679885 C76.734005,34.5493068 76.6131369,33.4301817 76.4394147,32.3286452 L41.1115267,32.3286452 L41.1631517,34.296113 L44.9035058,35.679885 Z M32.0898533,35.679885 L35.847006,34.2760701 L35.8978116,32.3286452 L0.569513874,32.3286452 C0.394972212,33.4301817 0.274923604,34.5493068 0.196666662,35.679885 L32.0898533,35.679885 Z" id="Fill-1"></path>
                    <path d="M40.9378045,25.7104272 L41.0258948,29.061667 L75.7723869,29.061667 C75.4892689,27.9233171 75.1512481,26.8062372 74.7677481,25.7104272 L40.9378045,25.7104272 Z M36.0711241,25.7104272 L2.2411805,25.7104272 C1.85768051,26.8062372 1.51965968,27.9233171 1.23572219,29.061667 L35.9834435,29.061667 L36.0711241,25.7104272 Z" id="Fill-3"></path>
                    <path d="M40.5911795,12.4739911 L40.6792698,15.8248219 L69.5786163,15.8248219 C68.7284427,14.6574304 67.8180399,13.5370782 66.8441302,12.4739911 L40.5911795,12.4739911 Z M36.4173393,12.4739911 L10.1647983,12.4739911 C9.19047893,13.5370782 8.28007618,14.6574304 7.42949286,15.8248219 L36.3296588,15.8248219 L36.4173393,12.4739911 Z" id="Fill-4"></path>
                    <path d="M40.764492,19.0922091 L40.8521726,22.443449 L73.4509009,22.443449 C72.9248176,21.2948732 72.3446509,20.1765661 71.7120398,19.0922091 L40.764492,19.0922091 Z M36.2440268,19.0922091 L5.29647903,19.0922091 C4.66345821,20.1765661 4.08370128,21.2948732 3.55802769,22.443449 L36.156756,22.443449 L36.2440268,19.0922091 Z" id="Fill-6"></path>
                    <path d="M18.1244718,5.85536408 C16.5187704,6.86118597 14.9941941,7.98276531 13.5601663,9.20701293 L37.5723463,9.20701293 L38.4602143,7.35243936 L39.3870059,9.20701293 L63.4483525,9.20701293 C62.0143248,7.98276531 60.4897484,6.86118597 58.8840471,5.85536408 L18.1244718,5.85536408" id="Fill-10"></path>
                    <path d="M52.3551236,2.58838588 C48.0571376,0.927695825 43.3895822,0.0081807392 38.5044643,0.0081807392 C33.6189366,0.0081807392 28.9517909,0.927695825 24.6533952,2.58838588 L52.3551236,2.58838588" id="Fill-5"></path>
                </g>
                <path d="M17.492625,116.111004 C17.8117181,116.111004 18.3068552,115.857934 18.9780512,115.351786 L19.4401838,116.556632 C18.7579846,117.491905 17.7622089,118.185097 16.4528266,118.636228 C15.8806596,118.845289 15.2232276,118.949818 14.4805107,118.949818 C13.7377939,118.949818 13.1463801,118.870046 12.7062517,118.7105 C12.2661232,118.550953 11.9305303,118.339144 11.6994628,118.075067 C11.3253536,117.645942 11.1383018,116.996762 11.1383018,116.127509 C11.1383018,115.676377 11.1988185,115.10972 11.3198539,114.427521 L12.1615954,109.8227 C12.4806885,107.963157 12.6402327,106.714311 12.6402327,106.076125 C12.6402327,105.437938 12.637482,104.984063 12.6319804,104.714484 C12.6264788,104.444905 12.5962204,104.161577 12.5412043,103.86449 C12.4861883,103.567403 12.4036654,103.330838 12.2936333,103.154786 C12.1065787,102.835693 11.8149979,102.676149 11.4188823,102.676149 C11.0227667,102.676149 10.63766,102.791681 10.2635508,103.022749 C9.8894416,103.253816 9.52083952,103.567403 9.15773352,103.963518 C8.37650547,104.799763 7.72732569,105.80104 7.21017473,106.96738 L5.79076747,118.603219 L0.294690529,118.603219 L3.24903819,94.1432008 L1.15293678,93.4334972 L1.41701255,92.0636041 L8.16744939,91.3704052 L9.07520985,91.8160331 L7.63929785,103.501386 C9.27877645,100.772589 11.3913615,99.4082114 13.9771163,99.4082114 C16.8929675,99.4082114 18.3508712,101.069672 18.3508712,104.392642 C18.3508712,104.997818 18.2353392,106.010099 18.0042718,107.429513 L17.5421392,110.268327 C17.4761199,110.686449 17.4018493,111.12107 17.3193253,111.572202 C17.2368012,112.023333 17.1570291,112.468957 17.0800066,112.909085 C16.9259616,113.888371 16.8489403,114.666837 16.8489403,115.244505 C16.8489403,115.822174 17.0634997,116.111004 17.492625,116.111004 L17.492625,116.111004 Z M32.346887,116.853717 C30.9604823,118.240122 29.2880191,118.933314 27.3294474,118.933314 C25.3708756,118.933314 23.8799628,118.251125 22.856664,116.886726 C21.9544006,115.654367 21.5032757,114.014913 21.5032757,111.968315 C21.5032757,108.546316 22.4605408,105.652515 24.3750997,103.286824 C25.6734787,101.658349 27.3459419,100.525035 29.3925393,99.8868488 C30.4378445,99.5677556 31.5849121,99.4082114 32.8337767,99.4082114 C34.0826412,99.4082114 35.3892531,99.6447769 36.7536514,100.117915 L39.2623712,99.4082114 L37.1332603,114.856644 C37.0342314,115.692888 37.2487908,116.111004 37.776945,116.111004 C38.1510542,116.111004 38.6626959,115.857934 39.3118854,115.351786 L39.774018,116.556632 C39.1908477,117.458895 38.2390842,118.152087 36.9186987,118.636228 C36.3905446,118.834286 35.7606201,118.933314 35.0289065,118.933314 C34.2971929,118.933314 33.67277,118.757265 33.155619,118.405162 C32.6384681,118.053059 32.3688934,117.535916 32.346887,116.853717 L32.346887,116.853717 Z M31.7362118,115.153729 L33.5517327,101.817903 C33.1886267,101.751884 32.7430033,101.718874 32.2148491,101.718874 C31.6866949,101.718874 31.1640502,101.864665 30.6468992,102.15625 C30.1297483,102.447835 29.6786233,102.843945 29.2935109,103.344591 C28.9083985,103.845237 28.5838086,104.428399 28.3197315,105.094093 C28.0556544,105.759787 27.841095,106.466733 27.6760468,107.214951 C27.3679569,108.612359 27.2139142,110.064761 27.2139142,111.572202 C27.2139142,113.079642 27.4312244,114.204703 27.8658513,114.94742 C28.3004782,115.690137 28.8836396,116.06149 29.6153532,116.06149 C30.3470668,116.06149 31.0540126,115.758906 31.7362118,115.153729 L31.7362118,115.153729 Z M41.1109016,118.982828 L40.087608,117.959534 L50.7496671,104.887784 L52.2846075,104.029537 L47.2836727,104.013033 C45.9852936,104.013033 45.1105514,104.519173 44.6594197,105.531468 C44.5163779,105.839558 44.4283536,106.164148 44.3953439,106.505248 L42.9429272,106.505248 C42.8328951,105.900071 42.7778799,105.382928 42.7778799,104.953803 C42.7778799,104.524677 42.7806306,104.178081 42.7861322,103.914004 C42.7916338,103.649927 42.8136399,103.278574 42.8521512,102.799935 C42.8906624,102.321295 42.9539299,101.872921 43.0419556,101.454799 C43.2510166,100.541532 43.5866096,99.9803766 44.0487445,99.7713156 C44.6319147,99.5292449 45.1655625,99.4082114 45.6497038,99.4082114 C46.1338452,99.4082114 46.6509884,99.4219652 47.201149,99.4494733 C47.7513096,99.4769813 48.323468,99.5127412 48.9176415,99.5567541 L52.5486833,99.8373346 C53.8360591,99.9363635 54.8400872,99.9858772 55.5607975,99.9858772 C56.2815079,99.9858772 56.8674202,99.7933239 57.3185519,99.4082114 L58.1933029,100.415 L47.4817295,113.651798 L46.2933885,114.361502 L51.7069418,114.361502 C53.0273272,114.361502 53.9350786,113.816851 54.4302232,112.727533 C54.5842681,112.40844 54.677794,112.061844 54.7108037,111.687735 L56.1137062,111.687735 C56.2017319,112.358931 56.2457441,113.021864 56.2457441,113.676555 C56.2457441,114.331246 56.223738,114.900654 56.1797251,115.384795 C56.1357123,115.868937 56.069694,116.325563 55.9816683,116.754689 C55.7616041,117.744978 55.4370142,118.377653 55.0078889,118.652733 C54.6887957,118.872797 54.1111358,118.982828 53.2748917,118.982828 C52.2075801,118.982828 50.8707099,118.925062 49.2642409,118.809528 C47.657772,118.693994 46.5409627,118.614222 45.9137796,118.570209 C44.4063396,118.482184 43.3115364,118.438172 42.6293372,118.438172 C41.9471381,118.438172 41.4409979,118.619722 41.1109016,118.982828 L41.1109016,118.982828 Z M69.0864283,116.853717 C67.7000236,118.240122 66.0275605,118.933314 64.0689887,118.933314 C62.110417,118.933314 60.6195041,118.251125 59.5962054,116.886726 C58.693942,115.654367 58.2428171,114.014913 58.2428171,111.968315 C58.2428171,108.546316 59.2000822,105.652515 61.1146411,103.286824 C62.4130201,101.658349 64.0854832,100.525035 66.1320807,99.8868488 C67.1773858,99.5677556 68.3244535,99.4082114 69.573318,99.4082114 C70.8221826,99.4082114 72.1287944,99.6447769 73.4931927,100.117915 L76.0019125,99.4082114 L73.8728016,114.856644 C73.7737727,115.692888 73.9883321,116.111004 74.5164863,116.111004 C74.8905955,116.111004 75.4022372,115.857934 76.0514267,115.351786 L76.5135593,116.556632 C75.9303891,117.458895 74.9786255,118.152087 73.6582401,118.636228 C73.1300859,118.834286 72.5001615,118.933314 71.7684479,118.933314 C71.0367343,118.933314 70.4123113,118.757265 69.8951604,118.405162 C69.3780094,118.053059 69.1084348,117.535916 69.0864283,116.853717 L69.0864283,116.853717 Z M68.4757531,115.153729 L70.291274,101.817903 C69.928168,101.751884 69.4825446,101.718874 68.9543904,101.718874 C68.4262363,101.718874 67.9035915,101.864665 67.3864406,102.15625 C66.8692896,102.447835 66.4181647,102.843945 66.0330523,103.344591 C65.6479398,103.845237 65.3233499,104.428399 65.0592729,105.094093 C64.7951958,105.759787 64.5806363,106.466733 64.4155882,107.214951 C64.1074982,108.612359 63.9534556,110.064761 63.9534556,111.572202 C63.9534556,113.079642 64.1707657,114.204703 64.6053926,114.94742 C65.0400195,115.690137 65.623181,116.06149 66.3548946,116.06149 C67.0866082,116.06149 67.793554,115.758906 68.4757531,115.153729 L68.4757531,115.153729 Z M85.9377633,104.310118 C86.8840396,101.042164 88.506989,99.4082114 90.8066603,99.4082114 C91.2247824,99.4082114 91.609889,99.5182419 91.9619918,99.7383061 L90.8231651,105.630497 C90.5370815,105.289397 90.0089353,105.11885 89.2387104,105.11885 C87.918325,105.11885 86.7354974,105.432437 85.6901923,106.05962 L83.9571951,118.603219 L78.6261655,118.603219 L80.8047906,102.725663 L79.0387839,101.735379 L79.3193644,100.266458 L84.7329176,99.4082114 L85.6076686,99.8043251 L85.9377633,104.310118 Z M108.318185,114.823634 C108.197149,115.681885 108.411709,116.111004 108.961869,116.111004 C109.258956,116.111004 109.74309,115.857934 110.414286,115.351786 L110.876419,116.556632 L110.364772,117.117793 C109.792605,117.755979 109.135173,118.218107 108.392456,118.50419 C107.649739,118.790274 106.865772,118.933314 106.040531,118.933314 C104.390049,118.933314 103.498803,118.014559 103.366764,116.177023 C102.486507,117.398379 101.292677,118.229109 99.7852365,118.669238 C99.2130694,118.845289 98.4951206,118.933314 97.6313685,118.933314 C96.7676163,118.933314 95.9753969,118.749013 95.2546866,118.380405 C94.5339762,118.011797 93.9480639,117.513909 93.4969322,116.886726 C92.6386817,115.676373 92.2095628,114.036919 92.2095628,111.968315 C92.2095628,108.502303 93.1118127,105.608502 94.9163395,103.286824 C96.1707056,101.669352 97.8321657,100.536038 99.9007696,99.8868488 C100.946075,99.5677556 101.906091,99.4082114 102.780846,99.4082114 C103.655601,99.4082114 104.417562,99.4577251 105.066752,99.5567541 L105.858979,94.1432008 L103.28424,93.4334972 L103.59783,92.0636041 L110.727876,91.3704052 L111.652141,91.8160331 L108.318185,114.823634 Z M100.21436,116.06149 C101.204649,116.06149 102.095895,115.494833 102.888127,114.361502 L104.703648,101.98295 C104.208503,101.806899 103.630843,101.718874 102.97065,101.718874 C102.310458,101.718874 101.724545,101.864665 101.212896,102.15625 C100.701247,102.447835 100.252873,102.843945 99.8677601,103.344591 C99.4826477,103.845237 99.1608086,104.428399 98.9022331,105.094093 C98.6436576,105.759787 98.4373505,106.466733 98.2833055,107.214951 C97.9862188,108.57935 97.8376777,110.02625 97.8376777,111.555697 C97.8376777,114.559574 98.6298971,116.06149 100.21436,116.06149 L100.21436,116.06149 Z M123.766617,116.853717 C122.380213,118.240122 120.707749,118.933314 118.749178,118.933314 C116.790606,118.933314 115.299693,118.251125 114.276394,116.886726 C113.374131,115.654367 112.923006,114.014913 112.923006,111.968315 C112.923006,108.546316 113.880271,105.652515 115.79483,103.286824 C117.093209,101.658349 118.765672,100.525035 120.81227,99.8868488 C121.857575,99.5677556 123.004642,99.4082114 124.253507,99.4082114 C125.502371,99.4082114 126.808983,99.6447769 128.173382,100.117915 L130.682101,99.4082114 L128.552991,114.856644 C128.453962,115.692888 128.668521,116.111004 129.196675,116.111004 C129.570784,116.111004 130.082426,115.857934 130.731616,115.351786 L131.193748,116.556632 C130.610578,117.458895 129.658814,118.152087 128.338429,118.636228 C127.810275,118.834286 127.18035,118.933314 126.448637,118.933314 C125.716923,118.933314 125.0925,118.757265 124.575349,118.405162 C124.058198,118.053059 123.788624,117.535916 123.766617,116.853717 L123.766617,116.853717 Z M123.155942,115.153729 L124.971463,101.817903 C124.608357,101.751884 124.162734,101.718874 123.634579,101.718874 C123.106425,101.718874 122.58378,101.864665 122.066629,102.15625 C121.549478,102.447835 121.098354,102.843945 120.713241,103.344591 C120.328129,103.845237 120.003539,104.428399 119.739462,105.094093 C119.475385,105.759787 119.260825,106.466733 119.095777,107.214951 C118.787687,108.612359 118.633644,110.064761 118.633644,111.572202 C118.633644,113.079642 118.850955,114.204703 119.285582,114.94742 C119.720208,115.690137 120.30337,116.06149 121.035083,116.06149 C121.766797,116.06149 122.473743,115.758906 123.155942,115.153729 L123.155942,115.153729 Z M137.350015,118.933314 L134.016058,103.336338 C133.906026,102.742165 133.663959,102.43408 133.28985,102.412073 C132.98176,102.40107 132.569145,102.58262 132.051994,102.95673 L131.573357,101.636351 C132.123518,100.844119 133.053275,100.19494 134.362657,99.6887919 C134.868805,99.5017373 135.512483,99.4082114 136.293712,99.4082114 C137.07494,99.4082114 137.737873,99.6007648 138.282532,99.9858772 C138.827191,100.37099 139.160033,100.932145 139.281069,101.66936 L140.766495,111.35764 L141.195618,114.840139 L142.63153,110.185804 L145.750925,99.5402493 L150.322737,99.5402493 L152.270296,111.918801 L152.765438,114.840139 L154.234359,112.116858 C155.312674,110.114273 155.851823,108.012691 155.851823,105.812049 C155.851823,105.228879 155.791306,104.623711 155.670271,103.996528 C155.439204,102.797178 155.323672,102.032466 155.323672,101.70237 C155.323672,101.372273 155.378687,101.066939 155.488719,100.786357 C155.598751,100.505775 155.763797,100.260957 155.983861,100.051896 C156.456999,99.6227708 157.053914,99.4082114 157.774625,99.4082114 C158.495335,99.4082114 159.039986,99.5099896 159.408594,99.713549 C159.777201,99.9171085 160.06053,100.183932 160.258588,100.514029 C160.61069,101.119205 160.786739,101.817899 160.786739,102.61013 C160.786739,103.402361 160.709718,104.101055 160.555673,104.706232 C160.401628,105.311408 160.184318,105.955086 159.903736,106.637286 C159.623154,107.319485 159.301315,108.012677 158.938209,108.716882 C158.575103,109.421088 158.195498,110.106028 157.799382,110.771722 C157.403266,111.437416 157.007157,112.067341 156.611041,112.661514 L155.505224,114.278978 L152.303305,118.735257 L148.342168,118.900304 L147.219846,112.744038 L146.592667,108.320769 L146.576162,106.043115 L145.800439,108.320769 L144.248994,113.20617 L142.020855,118.669238 L137.350015,118.933314 Z M172.57112,116.853717 C171.184716,118.240122 169.512252,118.933314 167.553681,118.933314 C165.595109,118.933314 164.104196,118.251125 163.080897,116.886726 C162.178634,115.654367 161.727509,114.014913 161.727509,111.968315 C161.727509,108.546316 162.684774,105.652515 164.599333,103.286824 C165.897712,101.658349 167.570175,100.525035 169.616773,99.8868488 C170.662078,99.5677556 171.809145,99.4082114 173.05801,99.4082114 C174.306875,99.4082114 175.613486,99.6447769 176.977885,100.117915 L179.486604,99.4082114 L177.357494,114.856644 C177.258465,115.692888 177.473024,116.111004 178.001178,116.111004 C178.375287,116.111004 178.886929,115.857934 179.536119,115.351786 L179.998251,116.556632 C179.415081,117.458895 178.463317,118.152087 177.142932,118.636228 C176.614778,118.834286 175.984853,118.933314 175.25314,118.933314 C174.521426,118.933314 173.897003,118.757265 173.379852,118.405162 C172.862701,118.053059 172.593127,117.535916 172.57112,116.853717 L172.57112,116.853717 Z M171.960445,115.153729 L173.775966,101.817903 C173.41286,101.751884 172.967237,101.718874 172.439082,101.718874 C171.910928,101.718874 171.388283,101.864665 170.871133,102.15625 C170.353982,102.447835 169.902857,102.843945 169.517744,103.344591 C169.132632,103.845237 168.808042,104.428399 168.543965,105.094093 C168.279888,105.759787 168.065328,106.466733 167.90028,107.214951 C167.59219,108.612359 167.438148,110.064761 167.438148,111.572202 C167.438148,113.079642 167.655458,114.204703 168.090085,114.94742 C168.524711,115.690137 169.107873,116.06149 169.839587,116.06149 C170.5713,116.06149 171.278246,115.758906 171.960445,115.153729 L171.960445,115.153729 Z M189.422455,104.310118 C190.368732,101.042164 191.991681,99.4082114 194.291352,99.4082114 C194.709474,99.4082114 195.094581,99.5182419 195.446684,99.7383061 L194.307857,105.630497 C194.021773,105.289397 193.493627,105.11885 192.723402,105.11885 C191.403017,105.11885 190.220189,105.432437 189.174884,106.05962 L187.441887,118.603219 L182.110857,118.603219 L184.289483,102.725663 L182.523476,101.735379 L182.804056,100.266458 L188.21761,99.4082114 L189.092361,99.8043251 L189.422455,104.310118 Z M204.722345,115.978966 C206.680917,115.978966 208.320371,115.120728 209.640756,113.404227 L210.697059,115.104215 C209.673761,116.699681 208.04531,117.843998 205.811658,118.5372 C204.953407,118.801277 204.040154,118.933314 203.071872,118.933314 C202.103589,118.933314 201.270108,118.837037 200.571404,118.644481 C199.8727,118.451925 199.253779,118.185101 198.714621,117.844001 C198.175464,117.502901 197.718838,117.098539 197.344728,116.630903 C196.970619,116.163266 196.662534,115.654376 196.420463,115.104215 C195.947325,114.0259 195.71076,112.826568 195.71076,111.506183 L195.71076,111.407154 C195.71076,107.963149 196.739544,105.102357 198.797145,102.824692 C200.832739,100.547027 203.374443,99.4082114 206.422333,99.4082114 C209.063104,99.4082114 210.752072,100.238941 211.489287,101.900427 C211.731357,102.46159 211.852391,103.116272 211.852391,103.86449 C211.852391,104.612708 211.709351,105.333408 211.423268,106.02661 C211.137184,106.719813 210.730072,107.341485 210.201917,107.891646 C209.673763,108.441806 209.060343,108.917688 208.361639,109.319305 C207.662935,109.720922 206.928482,110.048263 206.158257,110.301337 C204.639814,110.807485 203.132396,111.071558 201.63596,111.093564 C201.63596,112.810065 201.911036,114.05341 202.461196,114.823634 C203.011357,115.593859 203.765066,115.978966 204.722345,115.978966 L204.722345,115.978966 Z M205.200982,101.685865 C203.143382,101.685865 201.955053,104.161551 201.63596,109.112996 C202.8023,109.035973 203.880599,108.573845 204.870888,107.726598 C205.993215,106.758315 206.554371,105.50947 206.554371,103.980023 C206.554371,102.450577 206.103246,101.685865 205.200982,101.685865 L205.200982,101.685865 Z M230.420218,116.111004 C230.739312,116.111004 231.234449,115.857934 231.905645,115.351786 L232.367777,116.556632 C231.685578,117.491905 230.695304,118.185097 229.396925,118.636228 C228.813755,118.845289 228.150821,118.949818 227.408104,118.949818 C226.665387,118.949818 226.073974,118.861794 225.633845,118.685743 C225.193717,118.509691 224.858124,118.284129 224.627056,118.009048 C224.252947,117.579923 224.065895,116.952749 224.065895,116.127509 C224.065895,115.676377 224.126412,115.10972 224.247447,114.427521 L225.072684,109.8227 C225.40278,107.963157 225.567826,106.714311 225.567826,106.076125 C225.567826,105.437938 225.565075,104.984063 225.559574,104.714484 C225.554072,104.444905 225.523814,104.161577 225.468798,103.86449 C225.413782,103.567403 225.33676,103.330838 225.237731,103.154786 C225.039674,102.835693 224.745342,102.676149 224.354728,102.676149 C223.964114,102.676149 223.59001,102.783429 223.232406,102.997991 C222.874802,103.212554 222.519953,103.506886 222.167851,103.880995 C221.441639,104.61821 220.808963,105.55897 220.269806,106.703305 L218.635837,118.603219 L213.288303,118.603219 L215.450423,102.725663 L213.684417,101.735379 L213.948492,100.266458 L220.121263,99.4082114 L220.97951,99.8043251 L220.715434,103.27032 C222.343909,100.695568 224.406981,99.4082114 226.90471,99.4082114 C229.820561,99.4082114 231.278465,101.069672 231.278465,104.392642 C231.278465,104.997818 231.162933,106.010099 230.931865,107.429513 L230.469733,110.268327 C230.403713,110.686449 230.329443,111.12107 230.246919,111.572202 C230.164395,112.023333 230.090124,112.468957 230.024105,112.909085 C229.859057,113.888371 229.776534,114.666837 229.776534,115.244505 C229.776534,115.822174 229.991093,116.111004 230.420218,116.111004 L230.420218,116.111004 Z M243.458959,115.978966 C245.417531,115.978966 247.056985,115.120728 248.377371,113.404227 L249.433674,115.104215 C248.410375,116.699681 246.781924,117.843998 244.548272,118.5372 C243.690021,118.801277 242.776769,118.933314 241.808486,118.933314 C240.840203,118.933314 240.006722,118.837037 239.308018,118.644481 C238.609315,118.451925 237.990393,118.185101 237.451236,117.844001 C236.912078,117.502901 236.455452,117.098539 236.081343,116.630903 C235.707233,116.163266 235.399148,115.654376 235.157077,115.104215 C234.683939,114.0259 234.447374,112.826568 234.447374,111.506183 C234.447374,111.473173 234.447374,111.440164 234.447374,111.407154 C234.447374,107.963149 235.476159,105.102357 237.533759,102.824692 C239.569354,100.547027 242.111058,99.4082114 245.158947,99.4082114 C247.799718,99.4082114 249.488686,100.238941 250.225901,101.900427 C250.467972,102.46159 250.589005,103.116272 250.589005,103.86449 C250.589005,104.612708 250.445966,105.333408 250.159882,106.02661 C249.873799,106.719813 249.466686,107.341485 248.938532,107.891646 C248.410378,108.441806 247.796958,108.917688 247.098254,109.319305 C246.39955,109.720922 245.665096,110.048263 244.894871,110.301337 C243.376428,110.807485 241.869011,111.071558 240.372574,111.093564 C240.372574,112.810065 240.64765,114.05341 241.197811,114.823634 C241.747971,115.593859 242.50168,115.978966 243.458959,115.978966 L243.458959,115.978966 Z M243.937597,101.685865 C241.879996,101.685865 240.691667,104.161551 240.372574,109.112996 C241.538914,109.035973 242.617213,108.573845 243.607502,107.726598 C244.72983,106.758315 245.290985,105.50947 245.290985,103.980023 C245.290985,102.450577 244.83986,101.685865 243.937597,101.685865 L243.937597,101.685865 Z M263.693765,103.435367 C262.692473,102.335046 261.570162,101.784893 260.326799,101.784893 C259.127449,101.784893 258.318725,102.142492 257.900603,102.857701 C257.757561,103.099772 257.686042,103.385851 257.686042,103.715947 C257.686042,104.354134 257.867592,104.88228 258.230698,105.300402 C258.747849,105.894575 259.391527,106.469485 260.161752,107.025147 C260.931977,107.580809 261.517889,108.048439 261.919506,108.428049 C262.321123,108.80766 262.675972,109.234028 262.984062,109.707166 C263.655258,110.741468 263.990851,111.836272 263.990851,112.991609 C263.990851,114.146946 263.765288,115.087707 263.314156,115.813919 C262.863025,116.540131 262.26886,117.134295 261.531645,117.59643 C260.112231,118.48769 258.296728,118.933314 256.085082,118.933314 C254.445604,118.933314 252.943688,118.680244 251.579289,118.174096 C251.20518,118.042057 250.941107,117.915522 250.787062,117.794487 L251.579289,114.477035 C252.371521,115.269266 253.372798,115.841425 254.583151,116.193527 C255.034283,116.325566 255.455149,116.391584 255.845764,116.391584 C256.236378,116.391584 256.585724,116.355824 256.893814,116.284304 C257.201904,116.212783 257.482482,116.100001 257.735556,115.945956 C258.307723,115.593854 258.593802,115.065707 258.593802,114.361502 C258.593802,113.756325 258.395747,113.228179 257.999632,112.777047 C257.460474,112.149864 256.83055,111.585958 256.109839,111.085312 C255.389129,110.584666 254.836226,110.163799 254.451113,109.8227 C254.066001,109.4816 253.719405,109.079989 253.411315,108.617854 C252.718113,107.572549 252.371517,106.477746 252.371517,105.333411 C252.371517,104.189077 252.569572,103.270323 252.965687,102.577121 C253.361803,101.883918 253.906454,101.300757 254.599656,100.827619 C256.008067,99.8813425 257.845576,99.4082114 260.112238,99.4082114 C261.410617,99.4082114 262.414645,99.493485 263.124352,99.6640348 C263.834059,99.8345846 264.260427,99.9528674 264.403469,100.018887 L263.693765,103.435367 Z M278.102399,103.435367 C277.101107,102.335046 275.978796,101.784893 274.735433,101.784893 C273.536083,101.784893 272.727359,102.142492 272.309237,102.857701 C272.166195,103.099772 272.094676,103.385851 272.094676,103.715947 C272.094676,104.354134 272.276226,104.88228 272.639332,105.300402 C273.156483,105.894575 273.800161,106.469485 274.570386,107.025147 C275.340611,107.580809 275.926523,108.048439 276.32814,108.428049 C276.729758,108.80766 277.084606,109.234028 277.392696,109.707166 C278.063892,110.741468 278.399485,111.836272 278.399485,112.991609 C278.399485,114.146946 278.173922,115.087707 277.72279,115.813919 C277.271659,116.540131 276.677494,117.134295 275.940279,117.59643 C274.520865,118.48769 272.705362,118.933314 270.493716,118.933314 C268.854238,118.933314 267.352322,118.680244 265.987924,118.174096 C265.613814,118.042057 265.349741,117.915522 265.195696,117.794487 L265.987924,114.477035 C266.780155,115.269266 267.781432,115.841425 268.991785,116.193527 C269.442917,116.325566 269.863784,116.391584 270.254398,116.391584 C270.645012,116.391584 270.994358,116.355824 271.302448,116.284304 C271.610538,116.212783 271.891116,116.100001 272.14419,115.945956 C272.716357,115.593854 273.002436,115.065707 273.002436,114.361502 C273.002436,113.756325 272.804381,113.228179 272.408266,112.777047 C271.869108,112.149864 271.239184,111.585958 270.518473,111.085312 C269.797763,110.584666 269.24486,110.163799 268.859748,109.8227 C268.474635,109.4816 268.128039,109.079989 267.819949,108.617854 C267.126747,107.572549 266.780151,106.477746 266.780151,105.333411 C266.780151,104.189077 266.978206,103.270323 267.374321,102.577121 C267.770437,101.883918 268.315088,101.300757 269.00829,100.827619 C270.416701,99.8813425 272.25421,99.4082114 274.520872,99.4082114 C275.819251,99.4082114 276.823279,99.493485 277.532986,99.6640348 C278.242693,99.8345846 278.669061,99.9528674 278.812103,100.018887 L278.102399,103.435367 Z" id="hazardawareness" sketch:type="MSShapeGroup"></path>
            </g>
        </g>
    </g>
</svg>