<?xml version="1.0" encoding="utf-8"?>
<!-- Generator: Adobe Illustrator 16.0.0, SVG Export Plug-In . SVG Version: 6.00 Build 0)  -->
<!DOCTYPE svg PUBLIC "-//W3C//DTD SVG 1.1//EN" "http://www.w3.org/Graphics/SVG/1.1/DTD/svg11.dtd">
<svg version="1.1" id="Layer_1" xmlns="http://www.w3.org/2000/svg" xmlns:xlink="http://www.w3.org/1999/xlink" x="0px" y="0px"
	 width="190.541px" height="187.877px" viewBox="0 0 190.541 187.877" enable-background="new 0 0 190.541 187.877"
	 xml:space="preserve">
<path opacity="0.5" fill="#FFFFFF" d="M117.625,0H72.916c-4.611,1.111-9.086,2.55-13.41,4.307h71.525
	C126.711,2.55,122.231,1.111,117.625,0z"/>
<path opacity="0.7" fill="#FFFFFF" d="M100.574,32.573h68.653c1.953,2.4,3.789,4.905,5.508,7.493h-73.965L100.574,32.573z
	 M89.963,32.573h-68.65c-1.957,2.4-3.793,4.905-5.507,7.493h73.962L89.963,32.573z"/>
<path opacity="0.9" fill="#FFFFFF" d="M101.58,71.025h86.473c1.013,4.357,1.724,8.823,2.112,13.381h-79.796l-8.521-3.156
	L101.58,71.025z M88.693,81.203l0.266-10.178H2.483c-1.007,4.357-1.723,8.823-2.111,13.381h79.751L88.693,81.203z"/>
<path fill="#FFFFFF" d="M115.056,92.611c0,11.858,0,36.429,0,42.07c-9.091,9.09-31.019,8.555-39.573,0c0-5.646,0-30.212,0-42.07H0
	c0,52.615,42.654,95.266,95.271,95.266c52.617,0,95.271-42.649,95.271-95.266H115.056z"/>
<path opacity="0.6" fill="#FFFFFF" d="M95.358,14.86h54.94c2.445,1.739,4.809,3.588,7.079,5.536H98.12L95.358,14.86z M94.969,14.86
	H40.242c-2.45,1.739-4.812,3.588-7.079,5.536h59.159L94.969,14.86z"/>
<path opacity="0.8" fill="#FFFFFF" d="M102.67,51.8h80.062c1.723,3.566,3.199,7.267,4.47,11.063h-84.242L102.67,51.8z M91.08,51.8
	H11.018c-1.719,3.566-3.199,7.267-4.47,11.063h84.244L91.08,51.8z"/>
<g id="Layer_2">
</g>
</svg>
