<?xml version="1.0" encoding="utf-8"?>
<!-- Generator: Adobe Illustrator 16.0.0, SVG Export Plug-In . SVG Version: 6.00 Build 0)  -->
<!DOCTYPE svg PUBLIC "-//W3C//DTD SVG 1.1//EN" "http://www.w3.org/Graphics/SVG/1.1/DTD/svg11.dtd">
<svg version="1.1" id="Layer_1" xmlns="http://www.w3.org/2000/svg" xmlns:xlink="http://www.w3.org/1999/xlink" x="0px" y="0px"
	 width="500px" height="500px" viewBox="0 0 500 500" enable-background="new 0 0 500 500" xml:space="preserve">
<g>
	<path fill="#3A1467" d="M299.342,44.167h-97.708c-10.079,2.428-19.856,5.573-29.308,9.412h156.315
		C319.197,49.74,309.412,46.595,299.342,44.167z"/>
	<path fill="#A4448E" d="M238.887,115.353H88.856c-4.276,5.247-8.289,10.72-12.034,16.376h161.639L238.887,115.353z"/>
	<path fill="#A4448E" d="M262.511,131.729h161.642c-3.756-5.656-7.767-11.13-12.034-16.376H262.079L262.511,131.729z"/>
	<path fill="#D1445F" d="M236.113,221.632l0.581-22.243H47.706c-2.199,9.523-3.765,19.284-4.614,29.244h174.291L236.113,221.632z"/>
	<path fill="#D1445F" d="M264.861,221.735l18.623,6.898h174.39c-0.852-9.96-2.406-19.721-4.616-29.244H264.275L264.861,221.735z"/>
	<path fill="#415477" d="M293.724,246.564c0,25.916,0,79.613,0,91.941c-19.864,19.867-67.787,18.697-86.481,0
		c0-12.339,0-66.025,0-91.941H42.279c0,114.986,93.219,208.197,208.208,208.197s208.208-93.211,208.208-208.197H293.724z"/>
	<path fill="#60346E" d="M256.716,88.742h129.505c-4.965-4.257-10.129-8.298-15.473-12.098h-120.07L256.716,88.742z"/>
	<path fill="#60346E" d="M249.829,76.644H130.226c-5.355,3.8-10.519,7.841-15.47,12.098h129.289L249.829,76.644z"/>
	<path fill="#A70063" d="M263.287,177.552h184.106c-2.776-8.298-6.002-16.385-9.767-24.179H262.659L263.287,177.552z"/>
	<path fill="#A70063" d="M237.33,153.373H62.356c-3.756,7.794-6.989,15.881-9.767,24.179h184.109L237.33,153.373z"/>
</g>
</svg>
