<?xml version="1.0" encoding="UTF-8" standalone="no"?>
<svg width="191px" height="191px" viewBox="0 0 191 191" version="1.1" xmlns="http://www.w3.org/2000/svg" xmlns:xlink="http://www.w3.org/1999/xlink" xmlns:sketch="http://www.bohemiancoding.com/sketch/ns">
    <!-- Generator: Sketch 3.3.3 (12081) - http://www.bohemiancoding.com/sketch -->
    <title>Logo</title>
    <desc>Created with Sketch.</desc>
    <defs></defs>
    <g id="Page-1" stroke="none" stroke-width="1" fill="none" fill-rule="evenodd" sketch:type="MSPage">
        <g id="Artboard-1" sketch:type="MSArtboardGroup" transform="translate(-5.000000, -7.000000)" fill="#FFFFFF">
            <g id="Logo" sketch:type="MSLayerGroup" transform="translate(5.000000, 7.000000)">
                <path d="M115.303043,96.7364202 L115.303043,138.72391 C106.193968,147.834 84.2218564,147.292495 75.6492074,138.72391 L75.6492074,96.7364202 L0.269228723,96.7364202 C1.05862766,148.656926 43.3671596,190.509293 95.476633,190.509293 C147.58509,190.509293 189.893622,148.656926 190.684037,96.7364202 L115.303043,96.7364202" id="Fill-2" sketch:type="MSShapeGroup"></path>
                <path d="M111.343856,88.6209521 L190.46459,88.6209521 C190.271559,85.8128457 189.971851,83.0331862 189.541085,80.2972128 L101.94117,80.2972128 L102.069181,85.1839681 L111.343856,88.6209521 Z M79.5708032,88.6209521 L88.887133,85.1341862 L89.0131117,80.2972128 L1.41218085,80.2972128 C0.979382979,83.0331862 0.681707447,85.8128457 0.487659574,88.6209521 L79.5708032,88.6209521 Z" id="Fill-1" opacity="0.95" sketch:type="MSShapeGroup"></path>
                <path d="M101.510404,63.8590213 L101.728835,72.1827606 L187.887106,72.1827606 C187.18508,69.3553511 186.346915,66.5807713 185.395979,63.8590213 L101.510404,63.8590213 Z M89.4428617,63.8590213 L5.55728723,63.8590213 C4.60635106,66.5807713 3.76818617,69.3553511 3.06412766,72.1827606 L89.2254468,72.1827606 L89.4428617,63.8590213 Z" id="Fill-3" opacity="0.85" sketch:type="MSShapeGroup"></path>
                <path d="M100.650904,30.9826383 L100.869335,39.3053617 L172.528878,39.3053617 C170.420766,36.4058191 168.163309,33.6231117 165.748378,30.9826383 L100.650904,30.9826383 Z M90.3013457,30.9826383 L25.2048883,30.9826383 C22.7889415,33.6231117 20.531484,36.4058191 18.4223564,39.3053617 L90.0839309,39.3053617 L90.3013457,30.9826383 Z" id="Fill-4" opacity="0.6" sketch:type="MSShapeGroup"></path>
                <path d="M101.080654,47.4208298 L101.298069,55.7445691 L182.130691,55.7445691 C180.826202,52.8917606 179.387606,50.114133 177.818968,47.4208298 L101.080654,47.4208298 Z M89.8715957,47.4208298 L13.1332819,47.4208298 C11.5636277,50.114133 10.1260479,52.8917606 8.82257447,55.7445691 L89.6551968,55.7445691 L89.8715957,47.4208298 Z" id="Fill-6" opacity="0.75" sketch:type="MSShapeGroup"></path>
                <path d="M44.9418936,14.5434309 C40.9603564,17.0416702 37.1799787,19.8274255 33.6241277,22.8681862 L93.1653298,22.8681862 L95.3669096,18.2618351 L97.6650053,22.8681862 L157.328122,22.8681862 C153.772271,19.8274255 149.991894,17.0416702 146.010356,14.5434309 L44.9418936,14.5434309" id="Fill-10" opacity="0.5" sketch:type="MSShapeGroup"></path>
                <path d="M129.821074,6.42897872 C119.163681,2.30419149 107.589894,0.0203191489 95.476633,0.0203191489 C83.3623564,0.0203191489 71.7895851,2.30419149 61.1311755,6.42897872 L129.821074,6.42897872" id="Fill-5" opacity="0.403743004" sketch:type="MSShapeGroup"></path>
            </g>
        </g>
    </g>
</svg>